<svg width="12" height="15" viewBox="0 0 12 15" fill="none" xmlns="http://www.w3.org/2000/svg">
<g clip-path="url(#clip0_1368_45)">
<path d="M5.71 9.18172C3.8 9.18172 2.25 7.63172 2.25 5.72172C2.25 3.81172 3.8 2.26172 5.71 2.26172C7.62 2.26172 9.17 3.81172 9.17 5.72172C9.17 7.63172 7.62 9.18172 5.71 9.18172ZM5.71 2.95172C4.18 2.95172 2.94 4.19172 2.94 5.72172C2.94 7.25172 4.18 8.49172 5.71 8.49172C7.24 8.49172 8.48 7.25172 8.48 5.72172C8.48 4.19172 7.24 2.95172 5.71 2.95172Z" fill="#141B2F"/>
<path d="M5.70002 14.65C5.44002 14.65 5.18002 14.55 4.98002 14.36C3.55002 12.98 0.210021 9.42 0.0100206 6.09C-0.0899794 4.33 0.390021 2.82 1.42002 1.73C2.46002 0.63 4.02002 0 5.71002 0C7.40002 0 9.03002 0.66 10.09 1.81C11.1 2.9 11.55 4.39 11.41 6.1C11.13 9.38 7.84002 12.96 6.44002 14.35C6.24002 14.55 5.97002 14.65 5.71002 14.65H5.70002ZM5.71002 0.69C4.21002 0.69 2.83002 1.24 1.93002 2.2C1.04002 3.15 0.610021 4.48 0.710021 6.04C0.900021 9.21 4.40002 12.82 5.47002 13.85C5.61002 13.98 5.82002 13.98 5.95002 13.85C7.00002 12.81 10.45 9.18 10.72 6.04C10.85 4.53 10.46 3.22 9.58002 2.27C8.67002 1.28 7.22002 0.69 5.71002 0.69Z" fill="#141B2F"/>
</g>
<defs>
<clipPath id="clip0_1368_45">
<rect width="11.43" height="14.65" fill="white"/>
</clipPath>
</defs>
</svg>
