<svg width="16" height="16" viewBox="0 0 16 16" fill="none" xmlns="http://www.w3.org/2000/svg">
<g clip-path="url(#clip0_1368_38)">
<path d="M6.63 14.3584C7.45 14.3584 7.97 14.2384 8.45 13.9784C8.74 13.8184 9.02 13.6384 9.31 13.4684C9.41 13.4084 9.45 13.3184 9.47 13.2084C9.5 13.0284 9.45 12.8684 9.35 12.7284C9.03 12.2284 8.7 11.7384 8.38 11.2384C8.35 11.1884 8.31 11.1384 8.26 11.0984C8.12 10.9784 7.97 10.9284 7.78 11.0184C7.24 11.2484 6.69 11.4784 6.14 11.6984C5.91 11.7884 5.74 11.7384 5.61 11.5384C4.79 10.2784 3.97 9.01843 3.15 7.75843C3 7.53843 3.03 7.37843 3.25 7.21843C3.72 6.84843 4.19 6.47843 4.66 6.10843C4.72 6.05843 4.76 6.00843 4.77 5.92843C4.8 5.77843 4.75 5.64843 4.67 5.51843C4.34 5.01843 4.02 4.51843 3.69 4.00843C3.65 3.93843 3.6 3.87843 3.54 3.82843C3.32 3.62843 3.12 3.60843 2.87 3.76843C2.67 3.89843 2.47 4.02843 2.26 4.14843C1.52 4.56843 1.06 5.19843 0.83 5.97843C0.58 6.83843 0.64 7.69843 0.93 8.53843C1.46 10.0684 2.32 11.4284 3.45 12.6184C3.82 13.0084 4.21 13.3784 4.68 13.6684C5.36 14.0884 6.09 14.3384 6.63 14.3484M0 7.13843C0 6.41843 0.13 5.72843 0.47 5.07843C0.79 4.45843 1.26 3.96843 1.87 3.60843C2.09 3.47843 2.3 3.34843 2.5 3.20843C2.97 2.88843 3.49 2.98843 3.87 3.24843C4.02 3.34843 4.15 3.47843 4.25 3.62843C4.59 4.14843 4.93 4.66843 5.27 5.18843C5.45 5.47843 5.51 5.78843 5.42 6.11843C5.36 6.31843 5.25 6.47843 5.08 6.60843C4.69 6.91843 4.3 7.21843 3.91 7.52843C3.86 7.56843 3.86 7.58843 3.89 7.62843C4.61 8.72843 5.32 9.82843 6.03 10.9284C6.06 10.9784 6.09 10.9884 6.14 10.9584C6.6 10.7684 7.06 10.5884 7.52 10.3784C7.96 10.1784 8.44 10.3184 8.74 10.5984C8.83 10.6784 8.9 10.7684 8.97 10.8684C9.29 11.3584 9.61 11.8484 9.92 12.3384C10.15 12.6884 10.22 13.0684 10.09 13.4684C10.01 13.6984 9.87 13.8684 9.65 13.9984C9.36 14.1684 9.08 14.3484 8.78 14.5084C8.16 14.8584 7.49 14.9984 6.78 14.9784C5.73 14.9484 4.8 14.5784 3.97 13.9784C3.44 13.5984 3 13.1284 2.58 12.6484C1.7 11.6484 1 10.5284 0.5 9.30843C0.31 8.83843 0.14 8.36843 0.06 7.86843C0.03 7.64843 0 7.39843 0 7.13843Z" fill="#141B2F"/>
<path d="M15.3405 8.40946C15.3405 9.19946 15.2605 9.85946 15.1105 10.4995C15.0705 10.6795 14.9305 10.7795 14.7505 10.7695C14.5905 10.7695 14.4605 10.6495 14.4305 10.4795C14.4305 10.4295 14.4305 10.3795 14.4505 10.3395C14.6005 9.71946 14.6705 9.08946 14.6605 8.45946C14.6405 6.82946 14.1505 5.34946 13.2005 3.99946C12.3705 2.81946 11.2805 1.90946 9.95046 1.26946C9.37046 0.999462 8.77046 0.789462 8.15046 0.649462C7.92046 0.599462 7.80046 0.419462 7.87046 0.219462C7.92046 0.0594618 8.09046 -0.0305382 8.27046 0.00946178C8.90046 0.149462 9.51046 0.349462 10.1005 0.609462C11.9305 1.43946 13.3205 2.72946 14.2805 4.43946C14.7705 5.30946 15.0805 6.23946 15.2405 7.21946C15.2605 7.33946 15.2705 7.45946 15.2905 7.58946C15.3305 7.89946 15.3405 8.21946 15.3405 8.40946Z" fill="#141B2F"/>
<path d="M12.8097 8.54175C12.8097 9.02175 12.7497 9.49175 12.6397 9.96175C12.5997 10.1318 12.4497 10.2418 12.2797 10.2318C12.1097 10.2218 11.9797 10.0918 11.9697 9.92175C11.9697 9.81175 12.0097 9.70175 12.0297 9.59175C12.3397 7.90175 11.9397 6.37175 10.8397 5.02175C9.99965 3.99175 8.89965 3.33175 7.55965 3.02175C7.35965 2.97175 7.23965 2.81175 7.28965 2.62175C7.32965 2.44175 7.50965 2.34175 7.71965 2.39175C8.85965 2.65175 9.85965 3.16175 10.7097 3.92175C11.6697 4.78175 12.2997 5.83175 12.6197 7.05175C12.7497 7.54175 12.8097 8.04175 12.8097 8.55175" fill="#141B2F"/>
<path d="M10.5097 8.49936C10.5097 8.84936 10.4697 9.14936 10.3997 9.44936C10.3597 9.63936 10.1797 9.74936 9.98967 9.71936C9.79967 9.67936 9.68967 9.50936 9.72967 9.31936C9.85967 8.77936 9.86967 8.22936 9.70967 7.69936C9.31967 6.36936 8.42967 5.51936 7.03967 5.15936C6.78967 5.09936 6.67967 4.86936 6.79967 4.66936C6.87967 4.54936 7.01967 4.48936 7.16967 4.51936C7.89967 4.67936 8.54967 4.99936 9.10967 5.49936C9.86967 6.17936 10.3297 7.01936 10.4697 8.00936C10.4997 8.17936 10.5097 8.35936 10.4997 8.49936" fill="#141B2F"/>
</g>
<defs>
<clipPath id="clip0_1368_38">
<rect width="15.34" height="15.01" fill="white"/>
</clipPath>
</defs>
</svg>
