<svg width="14" height="14" viewBox="0 0 14 14" fill="none" xmlns="http://www.w3.org/2000/svg">
<path fill-rule="evenodd" clip-rule="evenodd" d="M4.48047 3.78C4.87047 3.53 5.12047 3.71 5.26047 4.1L5.61047 5.02C5.61047 5.02 5.86047 5.51 5.22047 6.01C5.14714 6.05667 5.1238 6.14 5.15047 6.26C5.29047 6.68 5.86047 7.95 7.66047 8.94C7.84047 9.05 7.87047 9.05 8.05047 8.9C8.19047 8.76 8.37047 8.58 8.51047 8.44C8.83047 8.16 9.00047 8.05 9.29047 8.26C9.50047 8.4 9.71047 8.58 9.93047 8.72C10.1405 8.9 10.4905 9.11 10.1405 9.53L9.82047 9.92C9.36047 10.48 8.97047 10.52 8.37047 10.38C6.08047 9.78 4.38047 8.16 3.64047 5.86C3.39047 4.98 3.75047 4.24 4.49047 3.78H4.48047ZM6.95047 0C10.8005 0 13.9005 3.11 13.9005 6.95C13.9005 10.79 10.7905 13.9 6.95047 13.9C5.89047 13.9 4.90047 13.69 4.02047 13.26L0.310469 13.9L0.800469 10.23L0.760469 10.16C0.270469 9.21 -0.0195312 8.11 -0.0195312 6.95C0.00046875 3.11 3.11047 0 6.95047 0ZM2.58047 12.36L3.57047 12.18L4.17047 12.07C5.02047 12.53 5.94047 12.78 6.96047 12.78C10.1705 12.78 12.7805 10.17 12.7805 6.96C12.7805 3.75 10.1705 1.13 6.95047 1.13C3.73047 1.13 1.13047 3.74 1.13047 6.95C1.13047 8.11 1.48047 9.17 2.05047 10.09L1.98047 10.62L1.84047 11.68L1.73047 12.49L2.58047 12.35V12.36Z" fill="#141B2F"/>
</svg>
